G04 #@! TF.FileFunction,Copper,L1,Top,Signal*
%FSLAX46Y46*%
G04 Gerber Fmt 4.6, Leading zero omitted, Abs format (unit mm)*
G04 Created by KiCad (PCBNEW no-vcs-found-product) date 17.07.2015 (пт) 14,57,07 EEST*
%MOMM*%
G01*
G04 APERTURE LIST*
%ADD10C,0.100000*%
%ADD11R,1.800000X1.800000*%
%ADD12C,1.800000*%
%ADD13R,1.060000X1.030000*%
%ADD14R,1.016000X1.016000*%
%ADD15C,0.838200*%
%ADD16C,0.900000*%
%ADD17R,1.600000X2.100000*%
%ADD18R,1.200000X0.550000*%
%ADD19R,1.300000X1.050000*%
%ADD20R,5.969000X3.556000*%
%ADD21R,5.969000X3.429000*%
%ADD22C,0.600000*%
%ADD23C,0.660400*%
%ADD24C,0.762000*%
%ADD25C,1.270000*%
%ADD26C,0.711200*%
%ADD27C,0.635000*%
%ADD28C,0.355600*%
%ADD29C,0.304800*%
G04 APERTURE END LIST*
D10*
D11*
X25781000Y-35179000D03*
D12*
X25781000Y-32639000D03*
D11*
X27051000Y-26289000D03*
D12*
X29591000Y-26289000D03*
D13*
X25273000Y-25781000D03*
X25273000Y-27559000D03*
D14*
X26924000Y-27940000D03*
X28702000Y-27940000D03*
X30670500Y-35623500D03*
X30670500Y-33845500D03*
X30924500Y-32385000D03*
X29146500Y-32385000D03*
X25273000Y-30861000D03*
X25273000Y-29083000D03*
D15*
X33020000Y-27051000D03*
D16*
X33020000Y-28384500D03*
D17*
X36794000Y-35227260D03*
X32294000Y-35232340D03*
D14*
X31000000Y-28194000D03*
X31000000Y-29972000D03*
D18*
X29494000Y-31176000D03*
X29494000Y-30226000D03*
X29494000Y-29276000D03*
X26894000Y-29276000D03*
X26894000Y-30226000D03*
X26894000Y-31176000D03*
D16*
X28194000Y-29972000D03*
X28194000Y-30988000D03*
D19*
X27686000Y-35633000D03*
X27686000Y-33328000D03*
D20*
X35600000Y-27000200D03*
D21*
X35600000Y-32080200D03*
D22*
X33147000Y-29718000D03*
X31432500Y-29908500D03*
X31686500Y-33274000D03*
D23*
X26894000Y-27970000D02*
X26894000Y-29276000D01*
X27051000Y-27813000D02*
X26894000Y-27970000D01*
X27051000Y-26289000D02*
X27051000Y-27813000D01*
X26894000Y-29276000D02*
X26894000Y-30226000D01*
X26543000Y-25781000D02*
X27051000Y-26289000D01*
X25273000Y-25781000D02*
X26543000Y-25781000D01*
D24*
X35242500Y-27051000D02*
X35306000Y-27114500D01*
D25*
X33020000Y-27051000D02*
X35242500Y-27051000D01*
D24*
X34036000Y-28384500D02*
X35306000Y-27114500D01*
D25*
X33020000Y-28384500D02*
X34036000Y-28384500D01*
D26*
X29146500Y-32385000D02*
X27686000Y-32385000D01*
X27686000Y-33328000D02*
X27686000Y-32385000D01*
D27*
X25844500Y-32639000D02*
X25781000Y-32639000D01*
D23*
X29591000Y-27051000D02*
X28702000Y-27940000D01*
X29591000Y-26289000D02*
X29591000Y-27051000D01*
X28194000Y-28448000D02*
X28702000Y-27940000D01*
X28448000Y-30226000D02*
X28194000Y-29972000D01*
X28194000Y-29972000D02*
X28194000Y-28448000D01*
X29494000Y-30226000D02*
X28448000Y-30226000D01*
X26035000Y-32385000D02*
X25781000Y-32639000D01*
X27686000Y-32385000D02*
X26035000Y-32385000D01*
X25273000Y-32131000D02*
X25781000Y-32639000D01*
X25273000Y-30861000D02*
X25273000Y-32131000D01*
D24*
X28194000Y-29972000D02*
X28194000Y-30988000D01*
X28194000Y-31877000D02*
X27686000Y-32385000D01*
X28194000Y-30988000D02*
X28194000Y-31877000D01*
D23*
X25273000Y-27559000D02*
X25273000Y-29083000D01*
D26*
X27686000Y-35633000D02*
X30661000Y-35633000D01*
X30661000Y-35633000D02*
X30670500Y-35623500D01*
X25781000Y-35179000D02*
X26225500Y-35179000D01*
X26225500Y-35179000D02*
X26679500Y-35633000D01*
X26679500Y-35633000D02*
X27686000Y-35633000D01*
D27*
X26035000Y-35433000D02*
X25971500Y-35369500D01*
X25971500Y-35369500D02*
X25781000Y-35179000D01*
X26035000Y-35433000D02*
X25781000Y-35179000D01*
D23*
X26225500Y-35623500D02*
X25781000Y-35179000D01*
X31902840Y-35623500D02*
X32294000Y-35232340D01*
X30670500Y-35623500D02*
X31902840Y-35623500D01*
X34287500Y-31176000D02*
X35306000Y-32194500D01*
X29494000Y-31176000D02*
X34287500Y-31176000D01*
X36794000Y-34127000D02*
X36794000Y-35227260D01*
X35306000Y-32639000D02*
X36794000Y-34127000D01*
X35306000Y-32194500D02*
X35306000Y-32639000D01*
D28*
X30988000Y-28194000D02*
X30861000Y-28194000D01*
X32512000Y-29718000D02*
X30988000Y-28194000D01*
X33147000Y-29718000D02*
X32512000Y-29718000D01*
D29*
X30924500Y-32385000D02*
X30924500Y-32512000D01*
X30924500Y-32512000D02*
X31686500Y-33274000D01*
X31432500Y-29908500D02*
X31369000Y-29972000D01*
X31369000Y-29972000D02*
X30861000Y-29972000D01*
D26*
X30670500Y-33845500D02*
X30670500Y-33655000D01*
X30670500Y-33655000D02*
X30924500Y-33401000D01*
X30924500Y-33401000D02*
X30924500Y-32385000D01*
D28*
X30861000Y-29591000D02*
X30861000Y-29972000D01*
X30546000Y-29276000D02*
X30861000Y-29591000D01*
X29494000Y-29276000D02*
X30546000Y-29276000D01*
M02*
